<?xml version="1.0" standalone="no"?>
<!DOCTYPE svg PUBLIC "-//W3C//DTD SVG 20010904//EN"
 "http://www.w3.org/TR/2001/REC-SVG-20010904/DTD/svg10.dtd">
<svg version="1.0" xmlns="http://www.w3.org/2000/svg"
 width="500.000000pt" height="500.000000pt" viewBox="0 0 500.000000 500.000000"
 preserveAspectRatio="xMidYMid meet">
<metadata>
Created by potrace 1.11, written by Peter Selinger 2001-2013
</metadata>
<g transform="translate(0.000000,500.000000) scale(0.100000,-0.100000)"
fill="#000000" stroke="none">
<path d="M1023 3133 l3 -1158 26 -105 c35 -142 70 -235 134 -360 138 -269 372
-503 637 -636 140 -71 211 -97 354 -131 110 -25 133 -27 333 -27 200 0 223 2
333 27 143 34 214 60 355 131 406 203 705 610 783 1064 18 108 19 171 19 1233
l0 1119 -1490 0 -1491 0 4 -1157z m567 877 l0 -150 23 4 c92 20 130 25 137 21
5 -3 6 10 3 29 -3 19 -1 36 6 40 6 4 11 12 11 17 0 6 -4 7 -10 4 -6 -4 -10 7
-10 24 0 21 5 31 15 31 8 0 15 5 15 10 0 6 14 10 30 10 17 0 30 -4 30 -10 0
-5 7 -10 15 -10 10 0 15 -10 15 -30 0 -16 -5 -30 -10 -30 -7 0 -7 -6 0 -20 6
-11 7 -32 4 -46 -4 -16 -3 -25 2 -21 5 3 40 0 77 -7 l67 -13 2 126 c1 69 2
136 2 149 l0 22 213 0 213 0 0 -210 0 -209 -75 -3 -75 -3 15 -29 c15 -29 11
-101 -6 -112 -5 -3 -9 -18 -9 -34 0 -25 -4 -29 -32 -32 -25 -2 -34 -8 -36 -25
-2 -13 -10 -23 -18 -23 -8 0 -26 -11 -40 -25 -20 -20 -24 -32 -19 -55 5 -23 3
-30 -9 -30 -11 0 -15 -8 -14 -25 l2 -25 158 0 158 0 -2 -207 -3 -208 -212 -3
-213 -2 0 163 0 163 -162 0 c-90 -1 -183 1 -208 4 l-45 5 -3 -168 -2 -167
-205 0 -205 0 0 210 0 210 159 0 c153 0 158 1 157 20 0 12 -7 25 -15 29 -8 6
-11 16 -6 31 5 16 0 29 -21 51 -15 16 -34 29 -41 29 -7 0 -13 9 -13 19 0 20
-18 31 -54 31 -17 0 -22 6 -21 28 0 15 -5 36 -12 48 -7 11 -10 24 -7 27 4 4 2
13 -5 20 -11 15 -5 47 9 47 4 0 10 9 13 20 5 19 0 20 -69 20 l-74 0 0 210 0
210 205 0 205 0 0 -150z m2250 -480 l0 -630 -627 2 -628 3 -3 628 -2 627 630
0 630 0 0 -630z"/>
<path d="M1667 3769 c-29 -24 -37 -38 -37 -62 0 -48 10 -76 30 -82 46 -15 43
-97 -4 -105 l-28 -5 22 -20 22 -20 18 23 c11 13 21 18 25 12 11 -17 51 -11 71
11 18 20 18 20 -8 14 -21 -5 -30 -2 -43 18 -9 14 -15 31 -13 39 1 7 -4 34 -11
60 -13 46 -12 95 4 131 11 25 -6 21 -48 -14z"/>
<path d="M1900 3792 c0 -5 5 -23 11 -41 9 -25 8 -47 -6 -104 -26 -110 -32
-120 -60 -114 -27 5 -32 -2 -13 -21 15 -15 55 -16 63 -1 5 7 14 3 27 -10 15
-17 23 -19 38 -11 28 15 25 30 -5 30 -14 0 -25 6 -25 13 0 6 -3 22 -6 34 -4
15 3 30 25 54 40 41 44 106 9 139 -29 28 -58 43 -58 32z"/>
<path d="M1442 3684 c-12 -8 -22 -22 -22 -30 0 -18 45 -97 64 -113 15 -12 9
-71 -7 -71 -8 0 -8 -3 -1 -10 12 -12 44 -3 44 12 0 5 15 6 34 3 25 -5 35 -3
39 9 5 12 0 16 -16 16 -36 1 -62 27 -62 63 -1 32 -35 137 -45 137 -3 0 -16 -7
-28 -16z"/>
<path d="M2130 3673 c-6 -16 -15 -37 -22 -48 -6 -11 -10 -37 -9 -59 2 -42 -17
-65 -56 -66 -13 0 -23 -5 -23 -10 0 -16 27 -23 46 -12 13 7 22 5 35 -12 14
-17 20 -19 30 -8 10 9 10 12 1 12 -25 0 -12 60 23 106 40 52 46 97 16 114 -28
14 -30 13 -41 -17z"/>
<path d="M1791 3376 c-8 -10 -8 -16 2 -24 17 -14 42 2 34 22 -8 20 -21 20 -36
2z"/>
<path d="M1587 3364 c-13 -14 6 -24 44 -24 28 0 39 4 39 15 0 11 -11 15 -38
15 -21 0 -42 -3 -45 -6z"/>
<path d="M1947 3364 c-13 -14 5 -24 44 -24 28 0 39 4 37 13 -5 13 -69 22 -81
11z"/>
</g>
</svg>
